<svg xmlns="http://www.w3.org/2000/svg" viewBox="0 0 543.65 543.65"><defs><style>.cls-1{fill:#545c52;}</style></defs><g id="Layer_2" data-name="Layer 2"><g id="Layer_1-2" data-name="Layer 1"><path class="cls-1" d="M271.83,0C121.7,0,0,121.7,0,271.83S121.7,543.65,271.83,543.65,543.65,422,543.65,271.83,422,0,271.83,0Zm85.66,432.17q-34.92,34.18-86.67,34.18-49.08,0-81.06-29.05-31.5-29.06-39.31-81.79l57.62-12.7q3.9,33.21,13.67,45.9,17.58,24.42,51.27,24.42,26.61,0,44.19-17.83t17.58-45.16a63.46,63.46,0,0,0-3-20.14,51.24,51.24,0,0,0-9.52-16.85,76,76,0,0,0-16.73-14.4,160.49,160.49,0,0,0-24.41-12.82l-36.38-15.14q-77.4-32.72-77.39-95.7,0-42.48,32.47-71,32.46-28.8,80.81-28.8,65.19,0,101.81,63.47l-46.15,27.35q-12.93-22.47-24.65-29.3-12.21-7.81-31.5-7.81-23.68,0-39.3,13.42-15.63,13.19-15.63,33.21,0,27.58,41,44.43l37.59,15.38q45.9,18.56,67.14,45.29t21.24,65.55Q392.15,398.23,357.49,432.17Z"/></g></g></svg>