<?xml version="1.0" encoding="utf-8"?>
<!-- Generator: Adobe Illustrator 25.2.0, SVG Export Plug-In . SVG Version: 6.00 Build 0)  -->
<svg version="1.1" id="Layer_1" xmlns="http://www.w3.org/2000/svg" xmlns:xlink="http://www.w3.org/1999/xlink" x="0px" y="0px"
	 viewBox="0 0 543.7 543.7" style="enable-background:new 0 0 543.7 543.7;" xml:space="preserve">
<style type="text/css">
	.st0{fill:#EABDA8;}
</style>
<g id="Layer_2_1_">
	<g id="Layer_1-2">
		<path class="st0" d="M271.8,0C121.7,0,0,121.7,0,271.8s121.7,271.8,271.8,271.8S543.7,422,543.7,271.8S422,0,271.8,0z
			 M357.5,432.2c-23.3,22.8-52.2,34.2-86.7,34.2c-32.7,0-59.7-9.7-81.1-29c-21-19.4-34.1-46.6-39.3-81.8l57.6-12.7
			c2.6,22.1,7.2,37.4,13.7,45.9c11.7,16.3,28.8,24.4,51.3,24.4c17.7,0,32.5-5.9,44.2-17.8s17.6-26.9,17.6-45.2
			c0.1-6.8-0.9-13.6-3-20.1c-2.1-6.2-5.3-11.9-9.5-16.9c-4.8-5.6-10.5-10.4-16.7-14.4c-7.8-5-15.9-9.3-24.4-12.8l-36.4-15.1
			c-51.6-21.8-77.4-53.7-77.4-95.7c0-28.3,10.8-52,32.5-71c21.6-19.2,48.6-28.8,80.8-28.8c43.5,0,77.4,21.2,101.8,63.5l-46.1,27.4
			c-8.6-15-16.8-24.7-24.6-29.3c-8.1-5.2-18.6-7.8-31.5-7.8c-15.8,0-28.9,4.5-39.3,13.4c-10.4,8.8-15.6,19.9-15.6,33.2
			c0,18.4,13.7,33.2,41,44.4l37.6,15.4c30.6,12.4,53,27.5,67.1,45.3c14.2,17.8,21.2,39.7,21.2,65.5
			C392.2,380.9,380.6,409.5,357.5,432.2z"/>
	</g>
</g>
</svg>
